<?xml version="1.0" standalone="no"?>
<!DOCTYPE svg PUBLIC "-//W3C//DTD SVG 20010904//EN"
 "http://www.w3.org/TR/2001/REC-SVG-20010904/DTD/svg10.dtd">
<svg version="1.0" xmlns="http://www.w3.org/2000/svg"
 width="200.000000pt" height="79.000000pt" viewBox="0 0 200.000000 79.000000"
 preserveAspectRatio="xMidYMid meet">

<g transform="translate(0.000000,79.000000) scale(0.100000,-0.100000)"
fill="#000000" stroke="none">
<path d="M171 746 c-6 -8 -11 -18 -10 -22 7 -38 -4 -96 -20 -111 -10 -10 -21
-35 -25 -55 -4 -20 -12 -39 -19 -41 -9 -4 -9 -6 1 -6 9 -1 12 -28 12 -100 0
-70 4 -102 13 -110 25 -20 37 9 37 86 l0 73 48 0 c55 0 77 11 69 34 -5 12 -20
16 -62 16 -54 0 -55 0 -55 30 l0 29 78 3 c60 2 77 6 77 18 0 11 -14 16 -57 18
-57 3 -82 22 -58 46 15 15 12 82 -4 95 -10 8 -16 8 -25 -3z"/>
<path d="M1820 646 c0 -2 8 -10 18 -17 15 -13 16 -12 3 4 -13 16 -21 21 -21
13z"/>
<path d="M410 590 c0 -20 5 -21 103 -18 83 2 102 6 102 18 0 12 -19 16 -102
18 -98 3 -103 2 -103 -18z"/>
<path d="M709 608 c0 -2 -2 -16 -4 -31 -4 -34 21 -49 40 -24 23 32 35 19 36
-40 4 -155 8 -206 17 -215 25 -25 32 7 32 138 0 127 1 134 20 134 11 0 20 -7
20 -15 0 -8 9 -15 20 -15 16 0 20 7 20 35 l0 35 -100 0 c-55 0 -100 -1 -101
-2z"/>
<path d="M1000 590 c0 -20 5 -21 103 -18 83 2 102 6 102 18 0 12 -19 16 -102
18 -98 3 -103 2 -103 -18z"/>
<path d="M1368 593 c-31 -36 -68 -111 -68 -137 0 -36 55 -143 80 -156 32 -17
114 -9 118 12 3 14 -6 17 -48 20 l-52 3 -31 59 -31 59 30 56 c28 55 30 56 79
61 37 4 51 9 53 23 3 15 -5 17 -56 17 -44 0 -63 -5 -74 -17z"/>
<path d="M1597 603 c-13 -12 -8 -288 5 -301 22 -22 38 7 38 69 l0 59 55 0 55
0 0 -59 c0 -39 5 -63 15 -71 25 -21 35 -1 35 76 0 78 12 95 38 53 11 -18 11
-23 -4 -34 -15 -11 -16 -16 -5 -43 7 -17 10 -36 6 -41 -3 -6 1 -11 11 -11 14
0 16 7 11 40 -7 58 10 60 59 7 49 -51 70 -47 27 5 -40 48 -73 96 -73 107 0 5
-6 11 -12 14 -10 3 -10 7 1 20 11 14 11 20 1 32 -12 14 -15 14 -32 -2 -11 -10
-15 -20 -9 -26 11 -11 3 -39 -10 -31 -5 3 -9 34 -9 70 0 49 -4 66 -15 71 -22
8 -23 6 -27 -66 l-3 -63 -58 -2 -57 -1 0 52 c0 28 -3 58 -6 67 -6 16 -26 21
-37 9z"/>
<path d="M410 380 l0 -90 94 0 c71 0 97 4 106 15 16 19 4 23 -83 27 l-69 3 -3
48 -3 47 33 0 c32 0 61 20 48 33 -3 4 -33 7 -65 7 l-58 0 0 -90z"/>
<path d="M1000 380 l0 -90 99 0 c95 0 126 9 105 30 -5 5 -42 10 -82 11 l-72 2
0 48 c0 47 1 49 29 49 29 0 57 21 44 33 -3 4 -33 7 -65 7 l-58 0 0 -90z"/>
<path d="M430 210 c0 -16 4 -30 8 -30 5 0 7 14 4 30 -2 17 -6 30 -8 30 -2 0
-4 -13 -4 -30z"/>
<path d="M1364 224 c3 -9 6 -21 7 -27 0 -7 4 -3 9 8 13 29 12 35 -6 35 -11 0
-14 -5 -10 -16z"/>
<path d="M91 213 c-7 -8 -11 -16 -8 -19 2 -2 10 2 17 11 17 20 9 27 -9 8z"/>
<path d="M230 210 c0 -11 2 -20 4 -20 2 0 6 9 9 20 3 11 1 20 -4 20 -5 0 -9
-9 -9 -20z"/>
<path d="M630 205 c0 -14 4 -25 9 -25 4 0 6 11 3 25 -2 14 -6 25 -8 25 -2 0
-4 -11 -4 -25z"/>
<path d="M743 215 c-3 -9 -3 -18 -1 -21 3 -3 8 4 11 16 6 23 -1 27 -10 5z"/>
<path d="M875 217 c-19 -15 -13 -37 11 -37 8 0 14 10 14 25 0 29 0 29 -25 12z
m15 -17 c0 -5 -4 -10 -10 -10 -5 0 -10 5 -10 10 0 6 5 10 10 10 6 0 10 -4 10
-10z"/>
<path d="M1270 215 c-9 -11 -10 -19 -2 -27 14 -14 31 -2 29 22 -2 24 -10 25
-27 5z m20 -15 c0 -5 -4 -10 -10 -10 -5 0 -10 5 -10 10 0 6 5 10 10 10 6 0 10
-4 10 -10z"/>
<path d="M1414 216 c-7 -18 3 -36 19 -35 9 0 9 2 0 6 -7 2 -13 12 -13 21 0 15
2 15 10 2 6 -9 10 -10 10 -3 0 19 -20 26 -26 9z"/>
<path d="M1510 214 c0 -8 4 -13 9 -10 5 4 12 0 14 -6 4 -8 6 -7 6 3 1 9 -6 19
-14 23 -9 3 -15 0 -15 -10z"/>
<path d="M1665 205 c0 -14 3 -25 8 -25 4 0 7 11 7 25 0 14 -3 25 -7 25 -5 0
-8 -11 -8 -25z"/>
<path d="M138 213 c7 -3 16 -2 19 1 4 3 -2 6 -13 5 -11 0 -14 -3 -6 -6z"/>
<path d="M174 209 c-3 -6 -2 -15 4 -21 13 -13 32 -2 32 18 0 16 -26 19 -36 3z
m26 -9 c0 -5 -4 -10 -10 -10 -5 0 -10 5 -10 10 0 6 5 10 10 10 6 0 10 -4 10
-10z"/>
<path d="M275 210 c-8 -12 2 -30 17 -30 6 0 5 7 -3 17 -12 15 -12 16 4 10 9
-3 17 -2 17 3 0 13 -27 13 -35 0z"/>
<path d="M474 209 c-10 -17 13 -36 27 -22 12 12 4 33 -11 33 -5 0 -12 -5 -16
-11z m26 -9 c0 -5 -4 -10 -10 -10 -5 0 -10 5 -10 10 0 6 5 10 10 10 6 0 10 -4
10 -10z"/>
<path d="M521 198 c1 -19 2 -19 6 -5 3 11 11 16 19 13 9 -3 12 -1 9 4 -12 19
-35 10 -34 -12z"/>
<path d="M574 209 c-10 -17 13 -36 27 -22 12 12 4 33 -11 33 -5 0 -12 -5 -16
-11z"/>
<path d="M721 204 c0 -11 3 -14 6 -6 3 7 2 16 -1 19 -3 4 -6 -2 -5 -13z"/>
<path d="M787 203 c4 -11 3 -14 -5 -9 -7 4 -12 2 -12 -3 0 -6 7 -11 15 -11 8
0 15 9 15 20 0 11 -4 20 -10 20 -5 0 -6 -7 -3 -17z"/>
<path d="M820 203 c0 -10 4 -14 8 -8 4 6 11 13 16 18 5 4 2 7 -7 7 -10 0 -17
-8 -17 -17z"/>
<path d="M931 203 c-7 -8 -10 -17 -7 -20 9 -9 29 13 25 25 -2 6 -10 3 -18 -5z"/>
<path d="M987 203 c4 -11 3 -14 -5 -9 -7 4 -12 2 -12 -4 0 -7 6 -10 13 -8 15
6 22 38 8 38 -6 0 -7 -7 -4 -17z"/>
<path d="M1010 203 c0 -11 3 -14 8 -7 4 6 14 14 22 17 10 4 8 6 -7 6 -16 1
-23 -5 -23 -16z"/>
<path d="M1065 210 c-8 -12 2 -30 17 -30 6 0 5 7 -3 17 -12 15 -12 16 4 10 9
-3 17 -2 17 3 0 13 -27 13 -35 0z"/>
<path d="M1177 203 c5 -12 3 -14 -8 -8 -11 6 -12 5 -1 -6 14 -15 39 2 28 20
-11 17 -26 13 -19 -6z"/>
<path d="M1210 203 c0 -10 4 -14 8 -8 4 6 11 13 16 18 5 4 2 7 -7 7 -10 0 -17
-8 -17 -17z"/>
<path d="M1462 203 c2 -9 10 -18 18 -20 13 -4 13 -3 0 6 -13 10 -13 12 0 21
13 8 12 10 -3 10 -12 0 -17 -6 -15 -17z"/>
<path d="M1560 209 c0 -5 4 -8 9 -5 5 4 12 0 14 -6 3 -8 6 -6 6 5 1 9 -6 17
-14 17 -8 0 -15 -5 -15 -11z"/>
<path d="M1618 213 c6 -2 12 -9 12 -14 0 -6 -4 -7 -10 -4 -5 3 -10 1 -10 -5 0
-18 25 -6 28 13 2 11 -3 17 -15 16 -10 0 -13 -3 -5 -6z"/>
<path d="M1705 210 c-3 -6 1 -7 9 -4 17 7 22 -11 6 -19 -6 -3 -5 -4 2 -3 19 4
22 36 4 36 -8 0 -18 -4 -21 -10z"/>
<path d="M1755 210 c-4 -6 1 -7 11 -3 14 5 16 2 12 -15 -4 -12 -2 -20 3 -16
15 9 10 44 -5 44 -8 0 -18 -4 -21 -10z"/>
<path d="M1825 207 c-5 -7 -11 -19 -13 -27 -1 -10 3 -8 13 4 8 11 15 23 15 28
0 11 -3 10 -15 -5z"/>
<path d="M335 190 c-3 -5 -2 -10 4 -10 5 0 13 5 16 10 3 6 2 10 -4 10 -5 0
-13 -4 -16 -10z"/>
<path d="M385 190 c-3 -5 -2 -10 4 -10 5 0 13 5 16 10 3 6 2 10 -4 10 -5 0
-13 -4 -16 -10z"/>
</g>
</svg>
