<?xml version="1.0" standalone="no"?>
<!DOCTYPE svg PUBLIC "-//W3C//DTD SVG 20010904//EN"
 "http://www.w3.org/TR/2001/REC-SVG-20010904/DTD/svg10.dtd">
<svg version="1.0" xmlns="http://www.w3.org/2000/svg"
 width="605.000000pt" height="165.000000pt" viewBox="0 0 605.000000 165.000000"
 preserveAspectRatio="xMidYMid meet">

<g transform="translate(0.000000,165.000000) scale(0.100000,-0.100000)"
fill="#000000" stroke="none">
<path d="M365 1613 c-16 -14 -38 -37 -47 -51 -16 -24 -16 -27 3 -50 23 -30 24
-60 4 -98 -12 -23 -14 -47 -9 -111 6 -76 -3 -149 -26 -210 -5 -12 -21 -24 -37
-27 -16 -4 -43 -15 -60 -25 l-31 -19 -4 -113 c-2 -71 -8 -114 -15 -116 -6 -2
-9 -13 -6 -23 4 -14 -7 -27 -43 -50 -26 -16 -56 -30 -66 -30 -10 0 -18 -5 -18
-11 0 -9 21 -10 71 -5 39 3 75 9 80 12 5 3 9 18 9 34 0 16 5 32 10 35 6 4 8
11 4 16 -8 14 39 140 51 136 6 -2 12 -162 15 -446 4 -378 7 -443 20 -451 25
-16 59 -11 80 10 19 19 20 33 20 270 l0 250 163 0 c186 0 207 7 207 64 0 56
-14 61 -202 64 l-168 4 0 94 0 94 218 0 c248 0 265 4 270 61 6 66 -4 69 -225
69 l-196 0 28 21 c23 19 26 27 21 63 -17 135 -18 156 -8 156 6 0 9 7 5 16 -5
13 -2 15 15 10 19 -6 21 -2 26 46 23 229 16 278 -47 316 -45 29 -75 27 -112
-5z"/>
<path d="M1150 495 l0 -495 289 0 c325 0 325 0 319 69 -5 57 -22 61 -270 61
l-218 0 0 150 0 150 103 0 c111 0 132 7 142 51 4 17 0 33 -13 50 -19 22 -28
24 -126 27 l-106 4 0 149 0 149 218 0 c248 0 265 4 270 61 6 69 6 69 -319 69
l-289 0 0 -495z"/>
<path d="M2060 887 c0 -67 4 -107 12 -115 7 -7 29 -12 50 -12 42 0 58 19 58
69 l0 31 60 0 60 0 0 -410 c0 -397 1 -411 20 -430 24 -24 63 -26 84 -4 14 13
16 66 16 430 l0 414 65 0 65 0 0 -31 c0 -50 16 -69 58 -69 21 0 43 5 50 12 8
8 12 48 12 115 l0 103 -305 0 -305 0 0 -103z"/>
<path d="M2970 495 l0 -495 289 0 c325 0 325 0 319 69 -5 57 -22 61 -270 61
l-218 0 0 150 0 150 103 0 c111 0 132 7 142 51 4 17 0 33 -13 50 -19 22 -28
24 -126 27 l-106 4 0 149 0 149 218 0 c248 0 265 4 270 61 6 69 6 69 -319 69
l-289 0 0 -495z"/>
<path d="M4137 975 c-22 -7 -49 -23 -61 -34 -12 -11 -60 -98 -106 -192 l-85
-172 0 -86 1 -86 81 -166 c113 -231 125 -239 348 -239 155 0 178 9 173 68 -4
54 -28 62 -184 62 -112 0 -133 3 -147 18 -8 9 -47 82 -86 161 -93 187 -93 185
3 377 40 82 79 154 87 161 9 7 69 12 155 15 157 3 174 10 174 64 0 56 -24 64
-180 64 -88 -1 -148 -6 -173 -15z"/>
<path d="M4806 974 c-14 -14 -16 -71 -16 -479 0 -408 2 -465 16 -479 21 -22
60 -20 84 4 19 19 20 33 20 215 l0 195 185 0 185 0 0 -195 c0 -182 1 -196 20
-215 24 -24 63 -26 84 -4 14 13 16 56 16 310 l0 294 50 0 c46 0 51 -2 66 -32
9 -18 32 -54 50 -81 40 -56 41 -60 12 -80 -55 -36 -78 -66 -78 -101 0 -49 58
-207 84 -229 l21 -17 -24 -21 c-14 -11 -37 -23 -53 -26 -15 -3 -28 -10 -28
-15 0 -11 125 -7 136 5 4 4 2 25 -5 48 -8 25 -9 45 -3 52 6 8 2 38 -10 82 -10
39 -21 80 -24 92 -5 18 2 26 44 47 l50 25 69 -72 c38 -40 92 -102 121 -139 39
-49 57 -65 71 -61 11 3 21 -2 25 -14 9 -22 -36 -65 -59 -57 -8 4 -15 1 -15 -5
0 -6 16 -11 35 -11 39 0 105 24 105 38 0 4 -11 23 -25 42 -14 19 -24 39 -21
46 2 6 -25 43 -59 82 -60 67 -145 197 -145 221 0 6 -21 34 -48 63 -67 75 -94
115 -82 123 18 11 11 31 -25 76 -41 51 -42 60 -14 77 54 34 55 132 3 167 -37
24 -94 32 -94 12 0 -8 -12 -28 -28 -44 -15 -17 -32 -43 -38 -59 -9 -26 -7 -32
20 -55 23 -20 28 -30 21 -45 -4 -10 -7 -23 -6 -28 6 -25 -11 -54 -33 -58 -53
-10 -66 23 -66 171 0 95 -3 123 -16 135 -21 22 -60 20 -84 -4 -19 -19 -20 -33
-20 -215 l0 -195 -185 0 -185 0 0 195 c0 182 -1 196 -20 215 -24 24 -63 26
-84 4z"/>
</g>
</svg>
