<?xml version="1.0" standalone="no"?>
<!DOCTYPE svg PUBLIC "-//W3C//DTD SVG 20010904//EN"
 "http://www.w3.org/TR/2001/REC-SVG-20010904/DTD/svg10.dtd">
<svg version="1.0" xmlns="http://www.w3.org/2000/svg"
 width="188.000000pt" height="67.000000pt" viewBox="0 0 188.000000 67.000000"
 preserveAspectRatio="xMidYMid meet">

<g transform="translate(0.000000,67.000000) scale(0.100000,-0.100000)"
fill="#000000" stroke="none">
<path d="M238 523 c75 -6 64 -23 -15 -23 -38 0 -73 -4 -79 -8 -7 -4 -9 -21 -7
-39 5 -33 6 -33 59 -33 30 0 54 -4 54 -10 0 -5 -25 -10 -55 -10 l-55 0 0 -80
c0 -117 -19 -98 -23 23 l-3 102 -2 -108 c-2 -99 0 -108 16 -105 14 3 17 16 20
80 l3 77 52 3 c40 2 53 7 55 21 3 14 -5 17 -52 17 -55 0 -56 0 -56 30 l0 29
73 3 c56 2 72 6 72 18 0 11 -13 15 -55 16 l-55 1 53 -4z"/>
<path d="M390 510 c0 -19 7 -20 95 -20 88 0 95 1 95 20 0 19 -7 20 -95 20 -88
0 -95 -1 -95 -20z m180 0 c0 -6 -35 -10 -85 -10 -50 0 -85 4 -85 10 0 6 35 10
85 10 50 0 85 -4 85 -10z"/>
<path d="M670 501 c0 -36 18 -50 35 -28 7 10 20 17 29 17 14 0 16 -16 16 -131
0 -119 2 -130 18 -127 15 3 17 19 20 131 2 102 5 127 17 127 8 0 18 -7 23 -17
15 -26 44 -9 40 24 l-3 28 -97 3 -98 3 0 -30z m187 3 c3 -8 1 -20 -6 -27 -8
-8 -11 -7 -11 6 0 12 -8 17 -30 17 l-30 0 0 -130 c0 -80 -4 -130 -10 -130 -6
0 -10 50 -10 130 l0 130 -30 0 c-22 0 -30 -5 -30 -17 0 -13 -3 -14 -11 -6 -7
7 -9 19 -6 27 9 23 165 23 174 0z"/>
<path d="M960 510 c0 -20 5 -21 93 -18 74 2 92 6 92 18 0 12 -18 16 -92 18
-88 3 -93 2 -93 -18z m180 0 c0 -6 -35 -10 -85 -10 -50 0 -85 4 -85 10 0 6 35
10 85 10 50 0 85 -4 85 -10z"/>
<path d="M1312 523 c-19 -7 -72 -118 -72 -149 0 -31 54 -130 78 -143 25 -13
112 -1 112 15 0 10 -14 14 -45 14 -43 0 -47 2 -75 47 -36 57 -37 70 -5 133 24
47 26 49 72 52 35 2 48 7 48 18 0 11 -13 16 -50 17 -27 1 -56 -1 -63 -4z m108
-13 c0 -5 -21 -10 -47 -10 -47 0 -49 -1 -75 -49 -35 -61 -35 -83 0 -146 26
-48 29 -50 77 -56 l50 -6 -50 -1 c-27 -1 -55 2 -61 6 -17 11 -64 108 -64 132
0 23 9 43 47 103 22 35 26 37 73 37 28 0 50 -4 50 -10z"/>
<path d="M1527 524 c-4 -4 -7 -72 -7 -151 0 -136 1 -143 20 -143 18 0 20 7 20
65 l0 65 55 0 55 0 0 -34 c0 -54 11 -96 26 -96 11 0 14 24 16 108 1 59 2 121
2 137 1 33 -11 58 -25 49 -5 -3 -9 -32 -9 -65 l0 -59 -60 0 -59 0 -3 62 c-3
57 -14 79 -31 62z m23 -75 l0 -60 68 3 67 3 6 65 c4 42 6 14 6 -80 0 -94 -2
-122 -6 -80 l-6 65 -67 3 -68 3 0 -66 c0 -37 -4 -65 -10 -65 -6 0 -10 54 -10
141 0 91 4 138 10 134 6 -3 10 -33 10 -66z"/>
<path d="M397 394 c-4 -4 -7 -43 -7 -86 0 -60 3 -80 15 -84 22 -9 175 9 178
21 1 6 -31 12 -73 15 l-75 5 -3 47 -3 47 38 3 c26 2 38 8 38 18 0 11 -14 16
-50 18 -28 2 -54 0 -58 -4z m93 -14 c0 -5 -16 -10 -35 -10 l-36 0 3 -57 3 -58
75 -6 75 -5 -87 -2 -88 -2 0 68 c0 38 3 72 7 75 10 11 83 8 83 -3z"/>
<path d="M960 316 c0 -47 4 -88 10 -91 5 -3 48 -3 95 1 62 5 85 10 85 20 0 11
-18 14 -75 14 l-75 0 0 49 c0 49 1 50 33 53 20 2 32 8 32 18 0 11 -14 16 -52
18 l-53 3 0 -85z m100 64 c0 -5 -15 -10 -34 -10 -34 0 -34 0 -38 -51 -1 -28
-1 -55 2 -59 3 -5 39 -11 80 -13 l75 -3 -87 -2 -88 -2 0 75 0 75 45 0 c25 0
45 -4 45 -10z"/>
</g>
</svg>
