<?xml version="1.0" standalone="no"?>
<!DOCTYPE svg PUBLIC "-//W3C//DTD SVG 20010904//EN"
 "http://www.w3.org/TR/2001/REC-SVG-20010904/DTD/svg10.dtd">
<svg version="1.0" xmlns="http://www.w3.org/2000/svg"
 width="325.000000pt" height="332.000000pt" viewBox="0 0 325.000000 332.000000"
 preserveAspectRatio="xMidYMid meet">

<g transform="translate(0.000000,332.000000) scale(0.100000,-0.100000)"
fill="#000000" stroke="none">
<path d="M845 3244 l-40 -36 43 32 c36 27 49 40 40 40 -2 0 -21 -16 -43 -36z"/>
<path d="M720 3155 c0 -8 -13 -39 -29 -68 -32 -60 -31 -68 22 -124 42 -44 49
-118 17 -164 -39 -54 -47 -117 -42 -325 4 -153 2 -201 -11 -245 -9 -30 -19
-78 -23 -106 -3 -29 -12 -60 -18 -68 -6 -8 -46 -28 -88 -44 -106 -39 -165 -76
-184 -114 -13 -24 -18 -78 -24 -248 -8 -210 -13 -242 -44 -268 -12 -10 -13
-18 -4 -37 10 -21 8 -28 -12 -49 -13 -14 -46 -40 -74 -58 -34 -21 -45 -33 -34
-35 10 -2 15 -9 11 -18 -3 -8 1 -14 11 -14 9 0 16 -4 16 -9 0 -13 -61 -22 -75
-11 -7 6 -26 8 -42 5 -20 -4 -16 0 16 15 24 11 42 22 40 24 -8 9 -123 -24
-138 -39 -14 -14 -13 -17 7 -38 21 -20 31 -22 150 -22 133 0 222 16 244 43 11
13 10 14 -15 8 -25 -6 -29 -3 -43 30 -17 41 -10 94 12 94 26 0 27 8 33 215 2
78 3 79 15 45 l13 -35 6 35 c7 42 -28 126 -55 133 -20 6 -24 42 -6 53 6 4 17
-1 24 -10 9 -12 14 -14 19 -5 6 8 10 7 17 -5 5 -9 26 -23 46 -31 40 -17 52
-30 52 -58 0 -14 -8 -9 -36 18 -20 20 -38 34 -41 32 -8 -9 15 -44 45 -69 15
-13 31 -31 35 -41 3 -9 7 -352 8 -760 0 -409 5 -750 10 -758 6 -11 41 -15 144
-17 116 -3 135 -1 135 12 0 8 -9 24 -21 35 -16 15 -21 35 -25 99 -5 79 -5 80
24 101 27 19 44 21 164 21 180 0 183 -2 184 -105 1 -122 3 -132 20 -149 13
-14 56 -16 319 -16 l303 0 45 40 45 40 -72 74 c-39 41 -80 79 -91 85 l-20 10
20 1 c17 0 17 2 5 10 -20 13 -260 13 -260 0 0 -5 -5 -10 -11 -10 -5 0 -7 5 -4
10 3 6 2 10 -4 10 -5 0 -13 -5 -17 -11 -5 -8 -9 -8 -14 1 -4 7 -1 21 8 31 15
17 32 19 142 19 129 0 150 6 163 42 3 10 2 20 -3 23 -5 3 -10 -5 -12 -17 -2
-12 -10 -24 -18 -26 -12 -4 -13 -2 -3 10 9 10 10 17 1 26 -7 7 -12 135 -14
404 -3 216 -9 427 -15 468 -7 49 -9 146 -4 282 5 151 4 208 -4 208 -10 0 -16
-45 -11 -97 1 -15 -4 -23 -14 -23 -9 0 -16 5 -16 10 0 7 -13 8 -35 4 -23 -4
-35 -2 -35 5 0 6 -9 11 -21 11 -12 0 -23 8 -26 20 -6 23 -23 27 -23 5 0 -9 -9
-15 -25 -15 -14 0 -25 -4 -25 -8 0 -5 17 -7 39 -6 52 2 70 -9 48 -30 -14 -14
-17 -15 -24 -1 -7 11 -16 13 -40 6 -34 -10 -44 -6 -37 14 3 7 1 16 -5 20 -6 3
-11 -1 -11 -9 0 -9 -4 -16 -10 -16 -5 0 -10 10 -10 22 0 12 -17 37 -39 58 -21
20 -40 43 -43 50 -2 8 -11 11 -21 7 -17 -6 -17 -8 -1 -32 20 -31 11 -45 -14
-22 -10 10 -24 17 -30 17 -7 0 -12 15 -12 35 0 26 -4 35 -17 35 -9 0 -13 3 -9
8 4 4 123 9 264 12 l257 6 -266 2 c-220 2 -269 0 -278 -12 -9 -11 -12 -172
-12 -630 0 -538 -2 -617 -15 -631 -12 -12 -42 -15 -143 -15 -102 0 -131 -3
-141 -15 -16 -19 -50 -19 -75 -1 -16 11 -20 29 -23 93 -10 246 -21 392 -31
411 -7 13 -21 22 -36 22 -28 0 -80 42 -100 81 -8 15 -15 43 -14 61 0 18 3 28
5 21 3 -7 12 -9 20 -6 8 3 14 1 14 -4 0 -4 12 -21 28 -38 15 -16 32 -38 37
-50 6 -11 23 -21 39 -23 28 -3 29 -2 22 29 -3 18 -9 57 -13 87 -3 30 -9 48
-13 41 -6 -9 -15 -7 -36 8 -16 11 -37 23 -46 26 -10 4 -18 12 -18 18 0 7 -8
18 -17 25 -15 11 -16 15 -4 26 8 8 11 8 7 1 -9 -17 14 -28 25 -12 5 9 -1 25
-17 46 -13 17 -24 42 -24 54 0 19 6 16 45 -27 34 -36 44 -55 40 -71 -6 -25 3
-53 17 -53 6 0 7 13 3 33 l-7 32 21 -19 c12 -11 24 -16 27 -13 6 6 -11 116
-18 123 -2 1 -16 3 -33 5 -41 4 -57 18 -49 42 5 16 3 19 -10 14 -9 -4 -15 -2
-13 5 1 6 -9 17 -23 24 -36 19 -55 74 -25 74 8 0 15 -4 15 -10 0 -19 3 -25 19
-37 10 -7 18 -8 22 -1 4 6 33 -4 74 -26 38 -20 72 -36 77 -36 15 0 8 28 -9 34
-61 22 -142 103 -127 127 4 7 3 9 -4 5 -15 -9 -109 13 -154 35 -53 27 -69 57
-69 126 0 32 -6 64 -12 71 -20 24 23 51 163 102 56 20 80 35 96 58 12 17 25
28 29 24 4 -4 4 8 0 26 -4 18 -3 32 2 31 18 -3 21 3 13 36 -4 19 -4 33 0 30 4
-2 8 8 9 23 0 15 4 86 9 157 4 72 3 146 -2 165 -4 19 -6 75 -3 123 4 71 9 95
27 119 48 66 45 120 -15 208 l-35 51 25 49 c27 53 31 70 15 70 -5 0 -10 -7
-10 -15z m-353 -1387 c-3 -8 -6 -5 -6 6 -1 11 2 17 5 13 3 -3 4 -12 1 -19z
m883 -74 c15 -9 35 -30 45 -46 13 -23 20 -27 26 -17 11 18 15 11 23 -33 9 -47
-4 -49 -46 -8 -16 17 -31 30 -34 30 -10 0 -2 -25 14 -43 12 -15 14 -21 5 -24
-18 -6 -16 -28 3 -48 14 -13 14 -19 4 -28 -10 -9 -11 -9 -5 2 6 10 2 12 -13 7
-25 -8 -35 15 -21 50 7 20 6 29 -5 38 -8 6 -17 27 -21 46 -6 33 -5 34 10 16
15 -20 15 -20 15 1 0 11 -9 28 -20 38 -37 33 -25 45 20 19z m-883 -91 c-3 -10
-5 -4 -5 12 0 17 2 24 5 18 2 -7 2 -21 0 -30z m263 22 c10 -12 10 -15 -3 -15
-8 0 -20 7 -27 15 -10 12 -10 15 3 15 8 0 20 -7 27 -15z m815 -35 c3 -5 1 -10
-4 -10 -6 0 -11 5 -11 10 0 6 2 10 4 10 3 0 8 -4 11 -10z m-51 -43 c-2 -12 -2
-16 2 -9 3 6 19 12 35 12 l29 0 0 -474 c0 -350 -3 -475 -12 -478 -6 -2 9 -26
35 -53 77 -83 139 -205 103 -205 -7 0 -16 8 -20 18 -6 16 -65 99 -155 217 -38
50 -42 60 -32 79 9 17 9 29 -3 58 -12 27 -13 48 -7 82 4 25 6 48 3 51 -11 10
-10 65 0 65 6 0 8 13 4 31 -3 18 -1 38 4 45 8 8 8 14 0 19 -5 3 -10 16 -10 27
l0 21 24 -22 c13 -12 27 -18 30 -13 7 12 -29 95 -49 112 -8 7 -15 24 -14 39 1
65 -14 268 -22 282 -10 20 0 89 14 89 6 0 7 3 4 6 -3 4 -2 15 4 26 14 25 39 7
33 -25z m-134 -99 c0 -4 -4 -8 -9 -8 -6 0 -12 4 -15 8 -3 5 1 9 9 9 8 0 15 -4
15 -9z m-563 -38 c1 -11 -2 -20 -8 -20 -5 0 -9 9 -9 20 0 11 4 20 8 20 4 0 8
-9 9 -20z m538 0 c3 -5 1 -10 -4 -10 -6 0 -11 5 -11 10 0 6 2 10 4 10 3 0 8
-4 11 -10z m79 -11 c-3 -5 -10 -7 -15 -3 -5 3 -7 10 -3 15 3 5 10 7 15 3 5 -3
7 -10 3 -15z m-947 -71 c-3 -8 -6 -5 -6 6 -1 11 2 17 5 13 3 -3 4 -12 1 -19z
m258 -98 c3 -5 -1 -10 -9 -10 -8 0 -18 5 -21 10 -3 6 1 10 9 10 8 0 18 -4 21
-10z m-395 -15 c-7 -8 -17 -15 -22 -15 -6 0 -5 7 2 15 7 8 17 15 22 15 6 0 5
-7 -2 -15z m1027 -7 c-3 -8 -6 -5 -6 6 -1 11 2 17 5 13 3 -3 4 -12 1 -19z
m-981 -14 c18 -14 18 -14 -6 -3 -31 14 -36 19 -24 19 6 0 19 -7 30 -16z m31
-26 c-3 -8 -6 -5 -6 6 -1 11 2 17 5 13 3 -3 4 -12 1 -19z m388 2 c3 -5 1 -10
-4 -10 -6 0 -11 5 -11 10 0 6 2 10 4 10 3 0 8 -4 11 -10z m849 -26 c4 -10 1
-14 -6 -12 -15 5 -23 28 -10 28 5 0 13 -7 16 -16z m-304 -75 c0 -18 -18 -9
-23 12 -4 16 -3 18 9 8 8 -6 14 -15 14 -20z m60 5 c0 -17 -22 -14 -28 4 -2 7
3 12 12 12 9 0 16 -7 16 -16z m44 -20 c9 -24 7 -28 -9 -14 -17 14 -20 30 -6
30 5 0 12 -7 15 -16z m-74 -50 c0 -8 -5 -12 -10 -9 -6 4 -8 11 -5 16 9 14 15
11 15 -7z m68 -103 c-15 -5 -21 7 -13 26 7 17 8 17 15 -2 4 -11 3 -22 -2 -24z
m-78 -2 c0 -6 -4 -7 -10 -4 -5 3 -10 11 -10 16 0 6 5 7 10 4 6 -3 10 -11 10
-16z m44 -69 c-8 -7 -24 24 -23 45 0 15 4 13 14 -10 7 -16 11 -32 9 -35z m-41
-127 c39 -44 97 -125 97 -135 0 -5 -5 -8 -12 -8 -24 0 -168 171 -168 200 0 17
46 -14 83 -57z"/>
<path d="M1408 950 c-5 -61 3 -180 13 -180 9 0 5 207 -4 216 -3 3 -7 -13 -9
-36z"/>
<path d="M1412 740 c0 -14 2 -19 5 -12 2 6 2 18 0 25 -3 6 -5 1 -5 -13z"/>
<path d="M1411 648 c-1 -15 4 -30 9 -33 12 -7 12 12 0 40 -8 18 -9 17 -9 -7z"/>
<path d="M1221 3054 c0 -11 3 -14 6 -6 3 7 2 16 -1 19 -3 4 -6 -2 -5 -13z"/>
<path d="M1233 2950 c0 -25 2 -35 4 -22 2 12 2 32 0 45 -2 12 -4 2 -4 -23z"/>
<path d="M1223 2820 c0 -47 2 -66 4 -42 2 23 2 61 0 85 -2 23 -4 4 -4 -43z"/>
<path d="M1211 2684 c0 -11 3 -14 6 -6 3 7 2 16 -1 19 -3 4 -6 -2 -5 -13z"/>
<path d="M1213 2595 c0 -22 2 -30 4 -17 2 12 2 30 0 40 -3 9 -5 -1 -4 -23z"/>
<path d="M1202 2520 c0 -14 2 -19 5 -12 2 6 2 18 0 25 -3 6 -5 1 -5 -13z"/>
<path d="M1186 2459 c-8 -42 0 -50 9 -9 4 17 5 34 2 36 -2 3 -7 -10 -11 -27z"/>
<path d="M1117 2403 c-4 -3 -7 -19 -7 -34 0 -19 6 -28 22 -32 12 -4 23 -5 24
-4 4 7 -34 76 -39 70z"/>
<path d="M1171 2403 c0 -6 -4 -20 -7 -30 -5 -14 -4 -15 5 -7 7 7 11 20 8 30
-3 11 -5 14 -6 7z"/>
<path d="M1074 2326 c-3 -8 -1 -34 4 -58 l10 -43 1 42 c1 23 6 43 13 45 13 5
2 28 -13 28 -5 0 -12 -6 -15 -14z"/>
<path d="M1985 2094 c-9 -14 -14 -32 -11 -39 2 -7 -4 -21 -15 -31 -11 -10 -29
-33 -40 -51 -12 -18 -34 -40 -50 -48 -17 -9 -29 -24 -29 -35 0 -11 -9 -42 -20
-71 -11 -28 -18 -59 -15 -68 3 -9 29 -28 57 -42 44 -20 54 -30 56 -53 3 -22
-3 -34 -25 -51 -27 -22 -27 -24 -10 -43 14 -16 16 -27 9 -53 -7 -28 -15 -36
-44 -43 -50 -12 -84 -1 -97 31 -13 34 -39 68 -46 61 -6 -6 32 -70 61 -102 13
-15 25 -17 61 -12 65 9 79 20 87 67 5 31 3 46 -8 57 -13 13 -12 17 8 33 36 28
38 56 8 90 -15 16 -43 37 -62 47 -29 14 -34 22 -32 44 1 15 9 39 17 55 8 15
15 38 15 50 0 13 8 24 20 28 11 3 32 23 48 43 15 20 37 47 50 61 14 15 20 31
16 43 -3 10 -1 18 5 18 6 0 11 7 11 16 0 11 5 14 16 10 8 -3 44 -13 80 -21 85
-20 132 -45 176 -93 49 -54 54 -68 53 -132 -2 -90 -50 -166 -134 -212 -39 -22
-37 -28 53 -125 37 -39 73 -87 81 -106 13 -32 13 -37 -6 -61 l-21 -27 28 -42
c16 -23 85 -98 154 -167 95 -95 128 -135 137 -165 7 -22 30 -67 52 -100 21
-33 61 -95 89 -138 48 -73 352 -402 352 -380 0 5 -67 79 -148 164 -117 121
-167 183 -236 288 -48 74 -96 158 -107 186 -15 41 -37 68 -110 134 -49 46
-115 114 -145 152 l-55 68 21 21 c12 12 19 29 16 38 -2 9 -7 27 -11 40 -4 13
-40 60 -81 105 -41 45 -74 84 -74 88 0 4 14 12 30 19 34 14 81 64 106 112 9
17 17 62 19 102 3 68 2 74 -31 119 -47 65 -107 101 -212 126 -48 12 -90 21
-93 21 -4 0 -14 -12 -24 -26z"/>
<path d="M1131 1994 c0 -11 3 -14 6 -6 3 7 2 16 -1 19 -3 4 -6 -2 -5 -13z"/>
<path d="M620 1963 c127 -58 244 -145 362 -268 44 -45 78 -73 78 -64 0 8 -22
39 -50 69 -27 29 -47 57 -43 63 3 6 1 7 -5 3 -6 -4 -28 8 -49 27 -21 18 -57
47 -79 65 -53 40 -228 132 -252 131 -9 0 8 -12 38 -26z"/>
<path d="M500 1880 c0 -5 5 -10 11 -10 5 0 7 5 4 10 -3 6 -8 10 -11 10 -2 0
-4 -4 -4 -10z"/>
<path d="M1066 1865 c-16 -12 -17 -15 -4 -15 8 0 21 7 28 15 16 19 1 19 -24 0z"/>
<path d="M550 1862 c0 -5 11 -19 25 -32 19 -18 25 -20 25 -8 0 8 -8 22 -18 31
-20 19 -32 22 -32 9z"/>
<path d="M920 1841 c0 -6 5 -13 10 -16 6 -3 10 1 10 9 0 9 -4 16 -10 16 -5 0
-10 -4 -10 -9z"/>
<path d="M1000 1792 c0 -5 7 -16 16 -23 14 -12 16 -11 13 5 -4 20 -29 35 -29
18z"/>
<path d="M1036 1736 c3 -9 11 -16 16 -16 13 0 5 23 -10 28 -7 2 -10 -2 -6 -12z"/>
<path d="M1560 1695 c0 -19 4 -35 9 -35 12 0 19 29 13 53 -7 30 -22 18 -22
-18z"/>
<path d="M861 1696 c12 -14 25 -26 27 -26 9 0 -25 44 -37 48 -7 2 -3 -7 10
-22z"/>
<path d="M657 1673 c-3 -5 -1 -17 3 -28 7 -19 7 -19 18 0 6 11 12 18 12 15 1
-3 3 -18 5 -34 5 -36 24 -56 56 -60 13 -1 31 -5 39 -9 8 -3 78 -5 155 -4 132
2 140 3 141 22 1 18 0 18 -3 1 -4 -16 -11 -12 -49 25 -37 36 -44 40 -44 22 0
-28 -44 -19 -65 14 -20 29 -32 24 -14 -6 17 -25 4 -39 -21 -23 -15 9 -29 8
-63 -2 -38 -11 -47 -11 -58 1 -22 22 -91 73 -100 73 -4 0 -10 -3 -12 -7z"/>
<path d="M1510 1670 c0 -5 5 -10 10 -10 6 0 10 5 10 10 0 6 -4 10 -10 10 -5 0
-10 -4 -10 -10z"/>
<path d="M1590 1670 c0 -5 7 -10 15 -10 8 0 15 5 15 10 0 6 -7 10 -15 10 -8 0
-15 -4 -15 -10z"/>
<path d="M675 1510 c-6 -9 25 -30 44 -30 20 0 11 17 -14 28 -14 7 -27 7 -30 2z"/>
<path d="M477 1504 c-4 -4 -7 -14 -7 -23 0 -11 3 -12 11 -4 6 6 10 16 7 23 -2
6 -7 8 -11 4z"/>
<path d="M1720 1320 c0 -6 38 -10 100 -10 l100 0 26 -52 c15 -29 40 -73 57
-98 48 -71 151 -189 160 -183 4 3 -2 17 -15 33 -13 15 -45 55 -73 88 -27 34
-70 98 -95 144 l-45 83 -108 3 c-69 2 -107 -1 -107 -8z"/>
<path d="M720 1296 c0 -9 7 -16 16 -16 17 0 14 22 -4 28 -7 2 -12 -3 -12 -12z"/>
<path d="M415 1290 c-8 -13 15 -13 35 0 12 8 11 10 -7 10 -12 0 -25 -4 -28
-10z"/>
<path d="M2100 945 c-19 -14 -31 -25 -26 -25 13 0 66 34 66 42 0 11 0 11 -40
-17z"/>
<path d="M1905 769 c-28 -53 -19 -85 128 -464 33 -84 37 -90 66 -93 17 -2 31
-9 31 -16 0 -8 7 -20 16 -27 15 -12 16 -11 9 11 -11 36 -24 50 -46 47 -15 -1
-25 9 -38 43 -152 370 -172 435 -146 495 17 43 1 46 -20 4z"/>
<path d="M2300 756 c-75 -31 -137 -64 -145 -75 -3 -6 6 -37 19 -70 14 -32 39
-112 56 -176 17 -65 35 -126 40 -135 7 -13 4 -20 -15 -28 -32 -15 -31 -34 1
-122 23 -61 25 -73 13 -85 -19 -19 -136 -36 -228 -34 -91 2 -111 7 -111 25 0
8 -7 14 -15 14 -20 0 -19 -13 4 -34 17 -15 128 -36 166 -30 66 10 182 37 192
46 19 16 16 48 -13 124 -24 64 -24 69 -8 81 9 7 21 14 26 15 10 4 -27 146 -78
294 -19 55 -34 103 -34 107 0 9 47 33 133 68 l70 28 48 -42 c158 -139 220
-199 261 -252 71 -90 257 -289 276 -294 8 -2 -34 50 -95 115 -61 66 -129 141
-150 169 -74 95 -311 315 -340 315 -10 -1 -43 -11 -73 -24z"/>
<path d="M3104 306 c-8 -20 9 -48 67 -112 53 -59 58 -76 32 -108 -13 -16 -10
-14 12 4 17 14 32 26 34 27 4 2 -4 12 -79 97 -41 47 -60 76 -57 88 6 21 -1 24
-9 4z"/>
<path d="M2990 205 c-11 -13 -10 -14 3 -10 9 4 21 -2 31 -16 21 -31 33 -16 12
16 -19 29 -29 31 -46 10z"/>
<path d="M2105 133 c-51 -28 -147 -63 -156 -57 -5 3 -9 1 -9 -5 0 -14 23 -27
27 -15 2 6 26 8 57 4 30 -3 52 -2 50 2 -3 4 -16 8 -30 8 -14 0 -22 4 -19 10 3
6 12 10 20 10 8 0 31 12 52 26 57 39 61 45 8 17z"/>
<path d="M2870 90 c0 -5 23 -10 50 -10 28 0 50 5 50 10 0 6 -22 10 -50 10 -27
0 -50 -4 -50 -10z"/>
<path d="M2840 58 c0 -16 27 -30 92 -47 27 -7 55 -5 100 5 34 8 63 16 64 17 1
1 -46 2 -106 2 -92 0 -111 3 -129 19 -17 16 -21 16 -21 4z"/>
<path d="M3125 50 c-16 -7 -17 -9 -3 -9 9 -1 20 4 23 9 7 11 7 11 -20 0z"/>
</g>
</svg>
