<svg xmlns="http://www.w3.org/2000/svg" xmlns:xlink="http://www.w3.org/1999/xlink" version="1.1" width="1000" height="1000" viewBox="0 0 1000 1000" xml:space="preserve">
<desc>Created with Fabric.js 3.5.0</desc>
<defs>
</defs>
<rect x="0" y="0" width="100%" height="100%" fill="rgba(255,255,255,0)"/>
<g transform="matrix(0.2479 0 0 0.2479 106.9793 28.3021)" id="279526">
<g style="" vector-effect="non-scaling-stroke">
		<g transform="matrix(0.1333 0 0 -0.1333 -345.4049 0.7053)">
<path style="stroke: none; stroke-width: 1; stroke-dasharray: none; stroke-linecap: butt; stroke-dashoffset: 0; stroke-linejoin: miter; stroke-miterlimit: 4; is-custom-font: none; font-file-url: none; fill: rgb(0,0,0); fill-rule: nonzero; opacity: 1;" transform=" translate(-434.57, -819.5051)" d="M 365 1613 c -16 -14 -38 -37 -47 -51 c -16 -24 -16 -27 3 -50 c 23 -30 24 -60 4 -98 c -12 -23 -14 -47 -9 -111 c 6 -76 -3 -149 -26 -210 c -5 -12 -21 -24 -37 -27 c -16 -4 -43 -15 -60 -25 l -31 -19 l -4 -113 c -2 -71 -8 -114 -15 -116 c -6 -2 -9 -13 -6 -23 c 4 -14 -7 -27 -43 -50 c -26 -16 -56 -30 -66 -30 c -10 0 -18 -5 -18 -11 c 0 -9 21 -10 71 -5 c 39 3 75 9 80 12 c 5 3 9 18 9 34 c 0 16 5 32 10 35 c 6 4 8 11 4 16 c -8 14 39 140 51 136 c 6 -2 12 -162 15 -446 c 4 -378 7 -443 20 -451 c 25 -16 59 -11 80 10 c 19 19 20 33 20 270 l 0 250 l 163 0 c 186 0 207 7 207 64 c 0 56 -14 61 -202 64 l -168 4 l 0 94 l 0 94 l 218 0 c 248 0 265 4 270 61 c 6 66 -4 69 -225 69 l -196 0 l 28 21 c 23 19 26 27 21 63 c -17 135 -18 156 -8 156 c 6 0 9 7 5 16 c -5 13 -2 15 15 10 c 19 -6 21 -2 26 46 c 23 229 16 278 -47 316 c -45 29 -75 27 -112 -5 z" stroke-linecap="round"/>
</g>
		<g transform="matrix(0.1333 0 0 -0.1333 -209.3869 43.9835)">
<path style="stroke: none; stroke-width: 1; stroke-dasharray: none; stroke-linecap: butt; stroke-dashoffset: 0; stroke-linejoin: miter; stroke-miterlimit: 4; is-custom-font: none; font-file-url: none; fill: rgb(0,0,0); fill-rule: nonzero; opacity: 1;" transform=" translate(-1454.6748, -495)" d="M 1150 495 l 0 -495 l 289 0 c 325 0 325 0 319 69 c -5 57 -22 61 -270 61 l -218 0 l 0 150 l 0 150 l 103 0 c 111 0 132 7 142 51 c 4 17 0 33 -13 50 c -19 22 -28 24 -126 27 l -106 4 l 0 149 l 0 149 l 218 0 c 248 0 265 4 270 61 c 6 69 6 69 -319 69 l -289 0 l 0 -495 z" stroke-linecap="round"/>
</g>
		<g transform="matrix(0.1333 0 0 -0.1333 -88.0102 43.9383)">
<path style="stroke: none; stroke-width: 1; stroke-dasharray: none; stroke-linecap: butt; stroke-dashoffset: 0; stroke-linejoin: miter; stroke-miterlimit: 4; is-custom-font: none; font-file-url: none; fill: rgb(0,0,0); fill-rule: nonzero; opacity: 1;" transform=" translate(-2365, -495.3383)" d="M 2060 887 c 0 -67 4 -107 12 -115 c 7 -7 29 -12 50 -12 c 42 0 58 19 58 69 l 0 31 l 60 0 l 60 0 l 0 -410 c 0 -397 1 -411 20 -430 c 24 -24 63 -26 84 -4 c 14 13 16 66 16 430 l 0 414 l 65 0 l 65 0 l 0 -31 c 0 -50 16 -69 58 -69 c 21 0 43 5 50 12 c 8 8 12 48 12 115 l 0 103 l -305 0 l -305 0 l 0 -103 z" stroke-linecap="round"/>
</g>
		<g transform="matrix(0.1333 0 0 -0.1333 33.2798 43.9835)">
<path style="stroke: none; stroke-width: 1; stroke-dasharray: none; stroke-linecap: butt; stroke-dashoffset: 0; stroke-linejoin: miter; stroke-miterlimit: 4; is-custom-font: none; font-file-url: none; fill: rgb(0,0,0); fill-rule: nonzero; opacity: 1;" transform=" translate(-3274.6748, -495)" d="M 2970 495 l 0 -495 l 289 0 c 325 0 325 0 319 69 c -5 57 -22 61 -270 61 l -218 0 l 0 150 l 0 150 l 103 0 c 111 0 132 7 142 51 c 4 17 0 33 -13 50 c -19 22 -28 24 -126 27 l -106 4 l 0 149 l 0 149 l 218 0 c 248 0 265 4 270 61 c 6 69 6 69 -319 69 l -289 0 l 0 -495 z" stroke-linecap="round"/>
</g>
		<g transform="matrix(0.1333 0 0 -0.1333 154.9899 43.9835)">
<path style="stroke: none; stroke-width: 1; stroke-dasharray: none; stroke-linecap: butt; stroke-dashoffset: 0; stroke-linejoin: miter; stroke-miterlimit: 4; is-custom-font: none; font-file-url: none; fill: rgb(0,0,0); fill-rule: nonzero; opacity: 1;" transform=" translate(-4187.5, -495)" d="M 4137 975 c -22 -7 -49 -23 -61 -34 c -12 -11 -60 -98 -106 -192 l -85 -172 l 0 -86 l 1 -86 l 81 -166 c 113 -231 125 -239 348 -239 c 155 0 178 9 173 68 c -4 54 -28 62 -184 62 c -112 0 -133 3 -147 18 c -8 9 -47 82 -86 161 c -93 187 -93 185 3 377 c 40 82 79 154 87 161 c 9 7 69 12 155 15 c 157 3 174 10 174 64 c 0 56 -24 64 -180 64 c -88 -1 -148 -6 -173 -15 z" stroke-linecap="round"/>
</g>
		<g transform="matrix(0.1333 0 0 -0.1333 318.6458 43.9835)">
<path style="stroke: none; stroke-width: 1; stroke-dasharray: none; stroke-linecap: butt; stroke-dashoffset: 0; stroke-linejoin: miter; stroke-miterlimit: 4; is-custom-font: none; font-file-url: none; fill: rgb(0,0,0); fill-rule: nonzero; opacity: 1;" transform=" translate(-5415, -495)" d="M 4806 974 c -14 -14 -16 -71 -16 -479 c 0 -408 2 -465 16 -479 c 21 -22 60 -20 84 4 c 19 19 20 33 20 215 l 0 195 l 185 0 l 185 0 l 0 -195 c 0 -182 1 -196 20 -215 c 24 -24 63 -26 84 -4 c 14 13 16 56 16 310 l 0 294 l 50 0 c 46 0 51 -2 66 -32 c 9 -18 32 -54 50 -81 c 40 -56 41 -60 12 -80 c -55 -36 -78 -66 -78 -101 c 0 -49 58 -207 84 -229 l 21 -17 l -24 -21 c -14 -11 -37 -23 -53 -26 c -15 -3 -28 -10 -28 -15 c 0 -11 125 -7 136 5 c 4 4 2 25 -5 48 c -8 25 -9 45 -3 52 c 6 8 2 38 -10 82 c -10 39 -21 80 -24 92 c -5 18 2 26 44 47 l 50 25 l 69 -72 c 38 -40 92 -102 121 -139 c 39 -49 57 -65 71 -61 c 11 3 21 -2 25 -14 c 9 -22 -36 -65 -59 -57 c -8 4 -15 1 -15 -5 c 0 -6 16 -11 35 -11 c 39 0 105 24 105 38 c 0 4 -11 23 -25 42 c -14 19 -24 39 -21 46 c 2 6 -25 43 -59 82 c -60 67 -145 197 -145 221 c 0 6 -21 34 -48 63 c -67 75 -94 115 -82 123 c 18 11 11 31 -25 76 c -41 51 -42 60 -14 77 c 54 34 55 132 3 167 c -37 24 -94 32 -94 12 c 0 -8 -12 -28 -28 -44 c -15 -17 -32 -43 -38 -59 c -9 -26 -7 -32 20 -55 c 23 -20 28 -30 21 -45 c -4 -10 -7 -23 -6 -28 c 6 -25 -11 -54 -33 -58 c -53 -10 -66 23 -66 171 c 0 95 -3 123 -16 135 c -21 22 -60 20 -84 -4 c -19 -19 -20 -33 -20 -215 l 0 -195 l -185 0 l -185 0 l 0 195 c 0 182 -1 196 -20 215 c -24 24 -63 26 -84 4 z" stroke-linecap="round"/>
</g>
</g>
</g>
</svg>